<svg width="111" height="12" viewBox="0 0 111 12" fill="none" xmlns="http://www.w3.org/2000/svg">
<path fill-rule="evenodd" clip-rule="evenodd" d="M33.9991 6.04046C33.9991 5.64005 33.8986 5.49133 33.4631 5.49133H29.6782C29.2762 5.49133 29.1311 5.64005 29.1311 6.04046V6.8184C29.1311 7.21881 29.2762 7.37897 29.6782 7.37897H32.101V8.22555C32.101 9.3467 31.0961 10.1132 29.466 10.1132C27.8359 10.1132 26.9316 9.32382 26.9316 7.82514V4.18714C26.9316 2.71134 27.8248 1.89908 29.466 1.89908C29.9738 1.83564 30.4877 1.94743 30.9265 2.21678C31.3653 2.48613 31.7039 2.89766 31.8889 3.38632C32.0228 3.78673 32.1792 3.86681 32.5588 3.72953L33.4296 3.42064C33.5029 3.40609 33.5719 3.37423 33.6311 3.32759C33.6903 3.28095 33.738 3.22081 33.7705 3.15196C33.803 3.0831 33.8194 3.00742 33.8184 2.93094C33.8174 2.85445 33.7989 2.77926 33.7646 2.71135C33.1505 0.903784 31.6991 0 29.466 0C26.6301 0 25 1.60164 25 4.21002V7.7565C25 10.3992 26.5743 11.9894 29.466 11.9894C30.6742 12.0702 31.8684 11.6868 32.8156 10.914C33.1969 10.583 33.5012 10.1687 33.7059 9.7015C33.9107 9.23432 34.0109 8.72611 33.9991 8.21411V6.04046ZM1.4376 1C1.8357 1 1.9684 1.14215 1.9684 1.52485V10.1849H6.46919C6.85624 10.1849 7 10.327 7 10.7097V11.4752C7 11.8579 6.85624 12 6.46919 12H0.541862C0.154816 12 0 11.8579 0 11.4752V1.52485C0 1.14215 0.154816 1 0.541862 1H1.4376ZM11 4.88359C11 2.45897 12.6425 1 15.5 1C18.3575 1 20 2.45897 20 4.88359V8.11641C20 10.541 18.3462 12 15.5 12C12.6537 12 11 10.541 11 8.11641V4.88359ZM18.11 4.88359C18.11 3.51908 17.1988 2.78435 15.5563 2.78435C13.9138 2.78435 13.0137 3.52958 13.0137 4.88359V8.1374C13.0137 9.5124 13.9138 10.2366 15.5563 10.2366C17.1988 10.2366 18.11 9.48092 18.11 8.1374V4.88359ZM39 4.88359C39 2.45897 40.6425 1 43.5 1C46.3575 1 48 2.45897 48 4.88359V8.11641C48 10.541 46.3462 12 43.5 12C40.6538 12 39 10.541 39 8.11641V4.88359ZM46.0987 4.88359C46.0987 3.51908 45.1875 2.78435 43.5562 2.78435C41.925 2.78435 41.0025 3.52958 41.0025 4.88359V8.1374C41.0025 9.5124 41.9137 10.2366 43.5562 10.2366C45.1987 10.2366 46.0987 9.48092 46.0987 8.1374V4.88359ZM53.2843 1C53.0686 1 53 1.07654 53 1.3171V11.6829C53 11.9235 53.0686 12 53.2843 12H53.7353C54 12 54 11.9235 54 11.6829V1.3171C54 1.07654 53.951 1 53.7353 1H53.2843ZM64.4916 1C65.4221 1 66.3145 1.36173 66.9724 2.00562C67.6304 2.64951 68 3.5228 68 4.4334C68 5.34399 67.6304 6.21729 66.9724 6.86118C66.3145 7.50507 65.4221 7.8668 64.4916 7.8668H61.1397V11.6829C61.1397 11.9235 61.0838 12 60.8492 12H60.324C60.0894 12 60 11.9235 60 11.6829V1.3171C60 1.07654 60.0894 1 60.324 1H64.4916ZM64.3911 6.78429C64.7109 6.78429 65.0277 6.72264 65.3232 6.60285C65.6187 6.48305 65.8872 6.30747 66.1134 6.08612C66.3396 5.86478 66.519 5.602 66.6414 5.3128C66.7638 5.0236 66.8268 4.71363 66.8268 4.4006C66.8268 4.08756 66.7638 3.7776 66.6414 3.48839C66.519 3.19919 66.3396 2.93642 66.1134 2.71507C65.8872 2.49372 65.6187 2.31814 65.3232 2.19835C65.0277 2.07856 64.7109 2.0169 64.3911 2.0169H61.0391V6.78429H64.3911ZM80.0554 1.51727C79.275 1.10721 78.368 0.933785 77.469 1.02275C74.7792 1.02275 73.2539 2.21305 73.1723 4.04026C73.155 4.41359 73.2295 4.78576 73.3905 5.1304C73.5515 5.47504 73.795 5.78371 74.1039 6.03453C74.4109 6.2564 74.7627 6.42303 75.1402 6.52526C75.5223 6.63815 75.911 6.73226 76.3046 6.80717L77.5621 6.95335C78.1898 6.98645 78.8111 7.08455 79.4136 7.24571C79.8147 7.32433 80.1718 7.52802 80.4213 7.82053C80.6707 8.11305 80.7964 8.47543 80.7759 8.84321C80.7759 10.2423 79.693 10.9314 77.4923 10.9314C76.7865 10.976 76.0833 10.8179 75.4845 10.4799C74.8858 10.142 74.4226 9.64188 74.1621 9.05203C74.1492 9.0147 74.1278 8.98017 74.0992 8.95066C74.0706 8.92114 74.0355 8.89728 73.996 8.88059C73.9566 8.8639 73.9138 8.85474 73.8702 8.8537C73.8266 8.85265 73.7833 8.85975 73.7429 8.87453L73.2306 9.04159C73.1859 9.05266 73.1446 9.07244 73.1095 9.09951C73.0743 9.12658 73.0463 9.16027 73.0274 9.19818C73.0085 9.23609 72.9992 9.27727 73.0001 9.31879C73.001 9.36031 73.0121 9.40114 73.0326 9.43836C73.3405 10.2547 73.9511 10.9518 74.7626 11.4134C75.5741 11.8751 76.5375 12.0735 77.4923 11.9756C80.4033 11.9756 81.9869 10.7957 81.9869 8.84321C82.047 8.30643 81.8993 7.76744 81.5685 7.31682C81.2377 6.8662 80.744 6.53139 80.1704 6.36865C79.4222 6.12289 78.6373 5.97861 77.8416 5.94056C77.1843 5.90182 76.535 5.78958 75.9087 5.60644C75.4873 5.54357 75.1055 5.34617 74.8337 5.05064C74.5619 4.75511 74.4185 4.38141 74.4299 3.99849C74.4299 2.74555 75.5012 2.04599 77.469 2.04599C78.138 1.98876 78.8099 2.12383 79.3877 2.43165C79.9654 2.73948 80.419 3.20411 80.6827 3.75835C80.8108 3.95673 80.8923 3.96717 81.1019 3.89408L81.6143 3.68526C81.8006 3.60173 81.8937 3.46599 81.8006 3.29893C81.4478 2.55215 80.8357 1.92733 80.0554 1.51727ZM87.2165 8.11198C87.2667 8.86942 87.6339 9.58092 88.243 10.1012C88.8522 10.6214 89.6573 10.9111 90.4941 10.9111C91.3308 10.9111 92.136 10.6214 92.7452 10.1012C93.3543 9.58092 93.7215 8.86942 93.7717 8.11198V1.31061C93.7717 1.07498 93.8543 1 94.1142 1H94.6575C94.9173 1 95 1.07498 95 1.31061V8.10127C95 10.5326 93.4173 12 90.5 12C87.5827 12 86 10.5326 86 8.10127V1.31061C86 1.07498 86.0827 1 86.3307 1H86.8858C87.1339 1 87.2165 1.07498 87.2165 1.31061V8.11198ZM111 1.31893C111 1.07842 110.923 1.00189 110.682 1.00189L110.232 1.05655C109.991 1.05655 109.925 1.08935 109.805 1.31893L105.989 8.05336L102.151 1.25333C102.113 1.17139 102.051 1.10323 101.972 1.0582C101.894 1.01318 101.803 0.993506 101.713 1.00189H101.318C101.077 1.00189 101 1.07842 101 1.31893V11.683C101 11.9235 101.077 12 101.318 12H101.746C101.987 12 102.064 11.9235 102.064 11.683V5.38583C102.059 4.46124 102 3.53769 101.888 2.6199H101.954C102.259 3.44045 102.626 4.2371 103.05 5.00319L105.441 9.19034C105.473 9.26222 105.525 9.32325 105.591 9.36597C105.657 9.40868 105.735 9.43123 105.814 9.43086H106.121C106.198 9.43197 106.274 9.40957 106.339 9.36663C106.404 9.32369 106.454 9.26222 106.482 9.19034L108.84 5.04692C109.293 4.26972 109.693 3.46247 110.035 2.63083H110.101C109.977 3.54026 109.914 4.45705 109.914 5.37489V11.683C109.914 11.9235 109.991 12 110.221 12H110.682C110.923 12 111 11.9235 111 11.683V1.31893Z" fill="#4A5D69"/>
</svg>
