<svg width="34" height="33" viewBox="0 0 34 33" fill="none" xmlns="http://www.w3.org/2000/svg">
<path d="M34 11.0376C34.0001 8.8142 33.3107 6.64261 32.022 4.80726C30.7333 2.97191 28.9055 1.55838 26.778 0.751821C24.6504 -0.0547394 22.3223 -0.216723 20.0986 0.287085C17.8749 0.790894 15.8593 1.937 14.3158 3.57529H0V33H30.226V19.2484C31.4124 18.215 32.3617 16.9496 33.012 15.5349C33.6623 14.1201 33.9989 12.5877 34 11.0376ZM28.1842 11.0376C28.1865 12.103 27.8641 13.1452 27.258 14.0321C26.6518 14.919 25.7891 15.6109 24.779 16.0202C23.7689 16.4294 22.6569 16.5376 21.5836 16.3311C20.5103 16.1246 19.5241 15.6127 18.7497 14.8601C17.9753 14.1075 17.4475 13.1481 17.2333 12.1033C17.019 11.0586 17.1278 9.97534 17.546 8.99081C17.9641 8.00627 18.6728 7.16467 19.5822 6.57252C20.4917 5.98037 21.5612 5.66429 22.6552 5.66429C24.1196 5.66429 25.5242 6.23004 26.5608 7.23741C27.5973 8.24479 28.1812 9.61148 28.1842 11.0376ZM24.4103 27.3363H5.81579V9.23905H11.4825C11.373 9.83275 11.3154 10.4344 11.3104 11.0376C11.3134 13.9669 12.5097 16.7753 14.6366 18.8466C16.7635 20.9179 19.6473 22.0829 22.6552 22.0858C23.2432 22.0828 23.8301 22.0342 24.4103 21.9406V27.3363Z" fill="#4A5D69"/>
</svg>
