<svg width="30" height="31" viewBox="0 0 30 31" fill="none" xmlns="http://www.w3.org/2000/svg">
<path d="M28.7615 9.36267C28.1987 8.0326 27.4539 6.79309 26.5498 5.68215C25.2134 3.99087 23.5455 2.61131 21.6561 1.63427C19.7667 0.657235 17.6985 0.104871 15.5877 0.0135342C13.4769 -0.0778021 11.3713 0.293958 9.40944 1.10435C7.44763 1.91474 5.6741 3.14539 4.20558 4.7153C2.73706 6.28521 1.60685 8.15878 0.88933 10.2127C0.17181 12.2666 -0.11675 14.4543 0.042646 16.6318C0.202042 18.8093 0.805779 20.9273 1.81412 22.8462C2.82246 24.7652 4.21254 26.4416 5.89287 27.7653C6.97106 28.6315 8.16243 29.3358 9.43153 29.857C11.2109 30.6107 13.1152 30.9989 15.0381 31C19.0074 30.9909 22.8112 29.3555 25.6159 26.4523C28.4205 23.5491 29.9971 19.6149 30 15.5121C30.0029 13.3958 29.5812 11.3019 28.7615 9.36267ZM15.027 3.15608C16.7538 3.15588 18.4598 3.546 20.0254 4.29909C19.6436 4.4696 19.2422 4.58868 18.8311 4.65343C17.4782 4.85585 16.2249 5.50507 15.2583 6.50417C14.2917 7.50328 13.6637 8.79869 13.4678 10.1971C13.3819 10.9813 13.0368 11.7109 12.4908 12.2627C11.9449 12.8145 11.2315 13.1548 10.471 13.2261C9.11813 13.4285 7.86486 14.0777 6.89826 15.0768C5.93166 16.0759 5.30357 17.3713 5.10773 18.7697C5.04143 19.5154 4.73362 20.2162 4.23412 20.7586C3.3723 18.8763 2.98515 16.7993 3.10869 14.7208C3.23223 12.6423 3.86246 10.6299 4.94072 8.87088C6.01898 7.11183 7.51022 5.66331 9.27569 4.66012C11.0411 3.65692 13.0234 3.13166 15.0381 3.13321L15.027 3.15608ZM5.88181 23.5132C6.01451 23.3875 6.14721 23.2732 6.27991 23.136C7.26372 22.1501 7.89522 20.8487 8.07136 19.4441C8.14278 18.6545 8.48383 17.9171 9.03343 17.3638C9.56229 16.7948 10.2741 16.4452 11.035 16.3808C12.3879 16.1784 13.6411 15.5292 14.6077 14.5301C15.5743 13.5309 16.2024 12.2355 16.3983 10.8372C16.4461 10.0113 16.789 9.23332 17.3603 8.654C17.9023 8.09603 18.6209 7.75913 19.384 7.70529C20.6269 7.52854 21.786 6.95743 22.7015 6.07078C23.7439 6.9647 24.6271 8.04008 25.3113 9.24837C25.2692 9.30706 25.221 9.36073 25.1675 9.40839C24.6397 9.98241 23.9287 10.3397 23.166 10.4142C21.8117 10.6131 20.5565 11.2612 19.5893 12.261C18.6221 13.2607 17.9951 14.5581 17.8027 15.9579C17.7247 16.7448 17.386 17.4796 16.8439 18.0379C16.3017 18.5962 15.5896 18.9435 14.828 19.0212C13.4712 19.222 12.2132 19.87 11.241 20.8687C10.2688 21.8674 9.63423 23.1636 9.43153 24.5648C9.37202 25.1234 9.18641 25.6598 8.88967 26.1307C7.75509 25.4345 6.73893 24.5502 5.88181 23.5132ZM15.027 27.9253C13.9049 27.9265 12.7882 27.7649 11.7095 27.4452C12.0785 26.7343 12.3184 25.9595 12.4173 25.1592C12.4948 24.374 12.8319 23.6406 13.3718 23.0825C13.9117 22.5245 14.6213 22.176 15.3809 22.0959C16.7358 21.8957 17.9916 21.2475 18.9603 20.2482C19.9291 19.2489 20.5588 17.9523 20.7552 16.5523C20.8327 15.7671 21.1699 15.0337 21.7098 14.4756C22.2497 13.9175 22.9593 13.5691 23.7189 13.489C24.7385 13.3519 25.7103 12.9595 26.5498 12.3459C27.016 14.1724 27.0712 16.0849 26.7112 17.9368C26.3513 19.7888 25.5857 21.5309 24.4732 23.0295C23.3607 24.5281 21.9309 25.7434 20.2935 26.5821C18.656 27.4209 16.8545 27.8608 15.027 27.8681V27.9253Z" fill="#4A5D69"/>
</svg>
