<svg width="22" height="32" viewBox="0 0 22 32" fill="none" xmlns="http://www.w3.org/2000/svg">
<path d="M10.2588 19.9817V28.1025C10.2588 28.4138 10.1294 28.7123 9.89914 28.9325C9.66884 29.1526 9.3565 29.2762 9.03081 29.2762C8.70512 29.2762 8.39278 29.1526 8.16248 28.9325C7.93219 28.7123 7.80281 28.4138 7.80281 28.1025V19.993C8.14472 20.2316 8.55469 20.3649 8.97793 20.3749C9.43933 20.3875 9.89134 20.2487 10.2588 19.9817ZM20.7174 17.6343C20.4057 17.6343 20.1068 17.7526 19.8865 17.9632C19.6661 18.1739 19.5423 18.4596 19.5423 18.7575V20.1727C19.5423 20.484 19.6716 20.7825 19.9019 21.0027C20.1322 21.2228 20.4446 21.3464 20.7703 21.3464C21.096 21.3464 21.4083 21.2228 21.6386 21.0027C21.8689 20.7825 21.9983 20.484 21.9983 20.1727V18.8136C22.0074 18.6526 21.9802 18.4915 21.9184 18.3414C21.8566 18.1913 21.7617 18.0557 21.6401 17.9438C21.5186 17.8319 21.3733 17.7464 21.2141 17.6929C21.0548 17.6395 20.8854 17.6195 20.7174 17.6343ZM5.13528 23.0593C4.71243 23.0472 4.3031 22.9142 3.96016 22.6774V30.8206C3.96016 31.1334 4.09016 31.4334 4.32155 31.6546C4.55295 31.8757 4.86679 32 5.19404 32C5.52128 32 5.83513 31.8757 6.06652 31.6546C6.29792 31.4334 6.42792 31.1334 6.42792 30.8206V22.7336C6.04418 22.9707 5.59142 23.0848 5.13528 23.0593ZM16.8865 15.1969C16.7273 15.1893 16.5682 15.2127 16.4187 15.2657C16.2693 15.3188 16.1327 15.4003 16.0173 15.5054C15.9019 15.6104 15.81 15.7368 15.7473 15.8769C15.6846 16.017 15.6524 16.1678 15.6526 16.3201V22.5763C15.6526 22.8891 15.7826 23.1891 16.014 23.4103C16.2454 23.6315 16.5593 23.7557 16.8865 23.7557C17.2137 23.7557 17.5276 23.6315 17.759 23.4103C17.9904 23.1891 18.1204 22.8891 18.1204 22.5763V16.3987C18.1297 16.2366 18.1022 16.0745 18.0398 15.9236C17.9773 15.7726 17.8813 15.6364 17.7584 15.5243C17.6356 15.4122 17.4887 15.3269 17.3281 15.2743C17.1674 15.2216 16.9967 15.2029 16.8277 15.2194L16.8865 15.1969ZM12.9851 17.6006C12.5425 17.5977 12.1116 17.4643 11.7512 17.2187V25.3843C11.7512 25.6971 11.8812 25.9971 12.1126 26.2183C12.344 26.4395 12.6578 26.5637 12.9851 26.5637C13.3123 26.5637 13.6262 26.4395 13.8576 26.2183C14.089 25.9971 14.219 25.6971 14.219 25.3843V17.2299C13.8462 17.4953 13.3911 17.6337 12.9263 17.623L12.9851 17.6006ZM2.46776 23.8568V1.04458C2.46466 0.76651 2.34692 0.500841 2.1401 0.305261C1.93328 0.109682 1.65408 -1.57345e-05 1.36314 1.6928e-09H1.10461C0.813678 -1.57345e-05 0.534482 0.109682 0.327661 0.305261C0.12084 0.500841 0.00309508 0.76651 0 1.04458V23.8568C0 24.1368 0.116379 24.4054 0.323534 24.6034C0.53069 24.8014 0.811653 24.9126 1.10461 24.9126H1.36314C1.6561 24.9126 1.93707 24.8014 2.14422 24.6034C2.35138 24.4054 2.46776 24.1368 2.46776 23.8568ZM5.26455 22.1945H5.00602C4.71306 22.1945 4.43209 22.0832 4.22494 21.8852C4.01778 21.6872 3.90141 21.4187 3.90141 21.1386V3.76273C3.9045 3.48466 4.02224 3.21899 4.22906 3.02341C4.43588 2.82783 4.71508 2.71813 5.00602 2.71815H5.26455C5.55548 2.71813 5.83468 2.82783 6.0415 3.02341C6.24832 3.21899 6.36607 3.48466 6.36916 3.76273V21.1611C6.36916 21.4411 6.25278 21.7097 6.04562 21.9077C5.83847 22.1057 5.55751 22.2169 5.26455 22.2169V22.1945ZM9.1542 19.5212H8.88392C8.59407 19.5212 8.3161 19.4112 8.11115 19.2153C7.9062 19.0194 7.79106 18.7537 7.79106 18.4767V6.45841C7.7895 6.32029 7.81662 6.18325 7.87085 6.05521C7.92507 5.92718 8.00533 5.8107 8.10696 5.71251C8.2086 5.61432 8.3296 5.53637 8.46296 5.48317C8.59633 5.42998 8.73941 5.40259 8.88392 5.4026H9.1542C9.44512 5.40556 9.72307 5.5181 9.92769 5.71578C10.1323 5.91347 10.2471 6.18032 10.2471 6.45841V18.4767C10.2471 18.7537 10.1319 19.0194 9.92697 19.2153C9.72201 19.4112 9.44404 19.5212 9.1542 19.5212ZM13.0439 16.7694H12.7971C12.5061 16.7694 12.2269 16.6597 12.0201 16.4641C11.8133 16.2686 11.6956 16.0029 11.6925 15.7248V9.25518C11.6828 9.11096 11.7042 8.96639 11.7554 8.83041C11.8066 8.69443 11.8864 8.56995 11.99 8.46465C12.0935 8.35936 12.2186 8.2755 12.3574 8.21828C12.4962 8.16106 12.6459 8.13168 12.7971 8.13198H13.0556C13.3486 8.13198 13.6295 8.24321 13.8367 8.44121C14.0438 8.63922 14.1602 8.90777 14.1602 9.18778V15.7024C14.1618 15.8419 14.1343 15.9804 14.0795 16.1098C14.0247 16.2392 13.9436 16.357 13.8409 16.4562C13.7381 16.5554 13.6158 16.6342 13.4811 16.688C13.3463 16.7417 13.2017 16.7694 13.0556 16.7694H13.0439ZM16.9453 14.3545H16.6867C16.3938 14.3545 16.1128 14.2433 15.9056 14.0453C15.6985 13.8473 15.5821 13.5787 15.5821 13.2987V11.6251C15.5852 11.3471 15.7029 11.0814 15.9098 10.8858C16.1166 10.6902 16.3958 10.5805 16.6867 10.5806H16.9453C17.2362 10.5805 17.5154 10.6902 17.7222 10.8858C17.929 11.0814 18.0468 11.3471 18.0499 11.6251V13.2987C18.0499 13.5768 17.9351 13.8436 17.7305 14.0413C17.5259 14.239 17.2479 14.3516 16.957 14.3545H16.9453Z" fill="#4A5D69"/>
</svg>
